<svg width="62" height="59" viewBox="0 0 62 59" fill="none" xmlns="http://www.w3.org/2000/svg">
<path d="M58.79 55.9999H3M3 25.3158L25.6675 7.18421C27.1513 5.99726 28.9949 5.35062 30.895 5.35062C32.7951 5.35062 34.6387 5.99726 36.1225 7.18421L58.79 25.3158M40.6582 9.97368V4.39474C40.6582 4.02483 40.8052 3.67007 41.0668 3.40851C41.3283 3.14695 41.6831 3 42.053 3H49.0267C49.3967 3 49.7514 3.14695 50.013 3.40851C50.2746 3.67007 50.4215 4.02483 50.4215 4.39474V18.3421M8.579 55.9999V21.1316M53.211 55.9999V21.1316" stroke="#D8575D" stroke-width="5" stroke-linecap="round"/>
<path d="M39.2634 56.0001V42.0527C39.2634 38.1084 39.2634 36.1362 38.036 34.9117C36.8142 33.6843 34.842 33.6843 30.8949 33.6843C26.9477 33.6843 24.9783 33.6843 23.7537 34.9117C22.5264 36.1334 22.5264 38.1056 22.5264 42.0527V56.0001M36.4739 21.1317C36.4739 22.6113 35.8861 24.0303 34.8398 25.0766C33.7935 26.1228 32.3745 26.7106 30.8949 26.7106C29.4152 26.7106 27.9962 26.1228 26.9499 25.0766C25.9037 24.0303 25.3159 22.6113 25.3159 21.1317C25.3159 19.652 25.9037 18.233 26.9499 17.1868C27.9962 16.1405 29.4152 15.5527 30.8949 15.5527C32.3745 15.5527 33.7935 16.1405 34.8398 17.1868C35.8861 18.233 36.4739 19.652 36.4739 21.1317Z" stroke="#D8575D" stroke-width="5"/>
</svg>
